# This file uses centimeters as units for non-parametric coordinates.

mtllib fence.mtl
g default
v -0.079395 2.509945 -4.136579
v 0.086077 2.509945 -4.136579
v -0.079395 2.509945 4.164447
v 0.086077 2.509945 4.164447
v -0.079395 2.810054 4.164447
v 0.086077 2.810054 4.164447
v -0.079395 2.810054 -4.136579
v 0.086077 2.810054 -4.136579
vt 0.248173 0.304762
vt 0.345792 0.304762
vt 0.345792 0.402381
vt 0.248173 0.402381
vt 0.345792 0.500000
vt 0.248173 0.500000
vt 0.345792 0.597619
vt 0.248173 0.597619
vt 0.345792 0.695238
vt 0.248173 0.695238
vt 0.443411 0.304762
vt 0.443411 0.402381
vt 0.150554 0.304762
vt 0.150554 0.402381
vn 0.000000 -1.000000 0.000000
vn 0.000000 -1.000000 0.000000
vn 0.000000 -1.000000 0.000000
vn 0.000000 -1.000000 0.000000
vn 0.000000 0.000000 1.000000
vn 0.000000 0.000000 1.000000
vn 0.000000 0.000000 1.000000
vn 0.000000 0.000000 1.000000
vn 0.000000 1.000000 0.000000
vn 0.000000 1.000000 0.000000
vn 0.000000 1.000000 0.000000
vn 0.000000 1.000000 0.000000
vn 0.000000 0.000000 -1.000000
vn 0.000000 0.000000 -1.000000
vn 0.000000 0.000000 -1.000000
vn 0.000000 0.000000 -1.000000
vn 1.000000 0.000000 0.000000
vn 1.000000 0.000000 0.000000
vn 1.000000 0.000000 0.000000
vn 1.000000 0.000000 0.000000
vn -1.000000 0.000000 0.000000
vn -1.000000 0.000000 0.000000
vn -1.000000 0.000000 0.000000
vn -1.000000 0.000000 0.000000
s 1
g fence:pasted__pCube1
usemtl initialShadingGroup
f 1/1/1 2/2/2 3/4/3
f 3/4/3 2/2/2 4/3/4
s 2
f 3/4/5 4/3/6 5/6/7
f 5/6/7 4/3/6 6/5/8
s 3
f 5/6/9 6/5/10 7/8/11
f 7/8/11 6/5/10 8/7/12
s 4
f 7/8/13 8/7/14 1/10/15
f 1/10/15 8/7/14 2/9/16
s 5
f 2/2/17 8/11/18 4/3/19
f 4/3/19 8/11/18 6/12/20
s 6
f 7/13/21 1/1/22 5/14/23
f 5/14/23 1/1/22 3/4/24
g default
v -0.080000 -2.646826 -3.822630
v 0.080000 -2.646826 -3.822630
v -0.080000 2.799987 -3.822630
v 0.080000 2.799987 -3.822630
v -0.080000 2.799987 -4.122739
v 0.080000 2.799987 -4.122739
v -0.080000 -2.646826 -4.122739
v 0.080000 -2.646826 -4.122739
vt 0.273968 0.325079
vt 0.361429 0.325079
vt 0.361429 0.412540
vt 0.273968 0.412540
vt 0.361429 0.500000
vt 0.273968 0.500000
vt 0.361429 0.587460
vt 0.273968 0.587460
vt 0.361429 0.674921
vt 0.273968 0.674921
vt 0.448889 0.325079
vt 0.448889 0.412540
vt 0.186508 0.325079
vt 0.186508 0.412540
vn 0.000000 0.000000 1.000000
vn 0.000000 0.000000 1.000000
vn 0.000000 0.000000 1.000000
vn 0.000000 0.000000 1.000000
vn 0.000000 1.000000 0.000000
vn 0.000000 1.000000 0.000000
vn 0.000000 1.000000 0.000000
vn 0.000000 1.000000 0.000000
vn 0.000000 0.000000 -1.000000
vn 0.000000 0.000000 -1.000000
vn 0.000000 0.000000 -1.000000
vn 0.000000 0.000000 -1.000000
vn 0.000000 -1.000000 0.000000
vn 0.000000 -1.000000 0.000000
vn 0.000000 -1.000000 0.000000
vn 0.000000 -1.000000 0.000000
vn 1.000000 0.000000 0.000000
vn 1.000000 0.000000 0.000000
vn 1.000000 0.000000 0.000000
vn 1.000000 0.000000 0.000000
vn -1.000000 0.000000 0.000000
vn -1.000000 0.000000 0.000000
vn -1.000000 0.000000 0.000000
vn -1.000000 0.000000 0.000000
s 1
g fence:pCube1
usemtl initialShadingGroup
f 9/15/25 10/16/26 11/18/27
f 11/18/27 10/16/26 12/17/28
s 2
f 11/18/29 12/17/30 13/20/31
f 13/20/31 12/17/30 14/19/32
s 3
f 13/20/33 14/19/34 15/22/35
f 15/22/35 14/19/34 16/21/36
s 4
f 15/22/37 16/21/38 9/24/39
f 9/24/39 16/21/38 10/23/40
s 5
f 10/16/41 16/25/42 12/17/43
f 12/17/43 16/25/42 14/26/44
s 6
f 15/27/45 9/15/46 13/28/47
f 13/28/47 9/15/46 11/18/48
g default
v -0.080000 -2.646826 4.165159
v 0.080000 -2.646826 4.165159
v -0.080000 2.799987 4.165159
v 0.080000 2.799987 4.165159
v -0.080000 2.799987 3.865050
v 0.080000 2.799987 3.865050
v -0.080000 -2.646826 3.865050
v 0.080000 -2.646826 3.865050
vt 0.277175 0.304762
vt 0.374794 0.304762
vt 0.374794 0.402381
vt 0.277175 0.402381
vt 0.374794 0.500000
vt 0.277175 0.500000
vt 0.374794 0.597619
vt 0.277175 0.597619
vt 0.374794 0.695238
vt 0.277175 0.695238
vt 0.472413 0.304762
vt 0.472413 0.402381
vt 0.179556 0.304762
vt 0.179556 0.402381
vn 0.000000 0.000000 1.000000
vn 0.000000 0.000000 1.000000
vn 0.000000 0.000000 1.000000
vn 0.000000 0.000000 1.000000
vn 0.000000 1.000000 0.000000
vn 0.000000 1.000000 0.000000
vn 0.000000 1.000000 0.000000
vn 0.000000 1.000000 0.000000
vn 0.000000 0.000000 -1.000000
vn 0.000000 0.000000 -1.000000
vn 0.000000 0.000000 -1.000000
vn 0.000000 0.000000 -1.000000
vn 0.000000 -1.000000 0.000000
vn 0.000000 -1.000000 0.000000
vn 0.000000 -1.000000 0.000000
vn 0.000000 -1.000000 0.000000
vn 1.000000 0.000000 0.000000
vn 1.000000 0.000000 0.000000
vn 1.000000 0.000000 0.000000
vn 1.000000 0.000000 0.000000
vn -1.000000 0.000000 0.000000
vn -1.000000 0.000000 0.000000
vn -1.000000 0.000000 0.000000
vn -1.000000 0.000000 0.000000
s 1
g fence:pasted__pCube2
usemtl initialShadingGroup
f 17/29/49 18/30/50 19/32/51
f 19/32/51 18/30/50 20/31/52
s 2
f 19/32/53 20/31/54 21/34/55
f 21/34/55 20/31/54 22/33/56
s 3
f 21/34/57 22/33/58 23/36/59
f 23/36/59 22/33/58 24/35/60
s 4
f 23/36/61 24/35/62 17/38/63
f 17/38/63 24/35/62 18/37/64
s 5
f 18/30/65 24/39/66 20/31/67
f 20/31/67 24/39/66 22/40/68
s 6
f 23/41/69 17/29/70 21/42/71
f 21/42/71 17/29/70 19/32/72
g default
v -0.079395 -2.456191 -4.136579
v 0.086077 -2.456191 -4.136579
v -0.079395 -2.456191 4.164447
v 0.086077 -2.456191 4.164447
v -0.079395 -2.156083 4.164447
v 0.086077 -2.156083 4.164447
v -0.079395 -2.156083 -4.136579
v 0.086077 -2.156083 -4.136579
vt 0.251380 0.284444
vt 0.359158 0.284444
vt 0.359158 0.392222
vt 0.251380 0.392222
vt 0.359158 0.500000
vt 0.251380 0.500000
vt 0.359158 0.607778
vt 0.251380 0.607778
vt 0.359158 0.715556
vt 0.251380 0.715556
vt 0.466935 0.284444
vt 0.466935 0.392222
vt 0.143602 0.284444
vt 0.143602 0.392222
vn 0.000000 -1.000000 0.000000
vn 0.000000 -1.000000 0.000000
vn 0.000000 -1.000000 0.000000
vn 0.000000 -1.000000 0.000000
vn 0.000000 0.000000 1.000000
vn 0.000000 0.000000 1.000000
vn 0.000000 0.000000 1.000000
vn 0.000000 0.000000 1.000000
vn 0.000000 1.000000 0.000000
vn 0.000000 1.000000 0.000000
vn 0.000000 1.000000 0.000000
vn 0.000000 1.000000 0.000000
vn 0.000000 0.000000 -1.000000
vn 0.000000 0.000000 -1.000000
vn 0.000000 0.000000 -1.000000
vn 0.000000 0.000000 -1.000000
vn 1.000000 0.000000 0.000000
vn 1.000000 0.000000 0.000000
vn 1.000000 0.000000 0.000000
vn 1.000000 0.000000 0.000000
vn -1.000000 0.000000 0.000000
vn -1.000000 0.000000 0.000000
vn -1.000000 0.000000 0.000000
vn -1.000000 0.000000 0.000000
s 1
g fence:pasted__pasted__pCube1
usemtl initialShadingGroup
f 25/43/73 26/44/74 27/46/75
f 27/46/75 26/44/74 28/45/76
s 2
f 27/46/77 28/45/78 29/48/79
f 29/48/79 28/45/78 30/47/80
s 3
f 29/48/81 30/47/82 31/50/83
f 31/50/83 30/47/82 32/49/84
s 4
f 31/50/85 32/49/86 25/52/87
f 25/52/87 32/49/86 26/51/88
s 5
f 26/44/89 32/53/90 28/45/91
f 28/45/91 32/53/90 30/54/92
s 6
f 31/55/93 25/43/94 29/56/95
f 29/56/95 25/43/94 27/46/96
g default
v -0.084657 -2.167061 3.877677
v 0.084657 -2.167061 3.877677
v -0.084657 2.558304 3.877677
v 0.084657 2.558304 3.877677
v -0.084657 2.558304 -3.877677
v 0.084657 2.558304 -3.877677
v -0.084657 -2.167061 -3.877677
v 0.084657 -2.167061 -3.877677
vt 0.692844 0.304279
vt 0.790704 0.304279
vt 0.790704 0.402139
vt 0.692844 0.402139
vt 0.790704 0.500000
vt 0.692844 0.500000
vt 0.790704 0.597861
vt 0.692844 0.597861
vt 0.790704 0.695721
vt 0.692844 0.695721
vt 0.888565 0.304279
vt 0.888565 0.402139
vt 0.594983 0.304279
vt 0.594983 0.402139
vn 0.000000 0.000000 1.000000
vn 0.000000 0.000000 1.000000
vn 0.000000 0.000000 1.000000
vn 0.000000 0.000000 1.000000
vn 0.000000 1.000000 0.000000
vn 0.000000 1.000000 0.000000
vn 0.000000 1.000000 0.000000
vn 0.000000 1.000000 0.000000
vn 0.000000 0.000000 -1.000000
vn 0.000000 0.000000 -1.000000
vn 0.000000 0.000000 -1.000000
vn 0.000000 0.000000 -1.000000
vn 0.000000 -1.000000 0.000000
vn 0.000000 -1.000000 0.000000
vn 0.000000 -1.000000 0.000000
vn 0.000000 -1.000000 0.000000
vn 1.000000 0.000000 0.000000
vn 1.000000 0.000000 0.000000
vn 1.000000 0.000000 0.000000
vn 1.000000 0.000000 0.000000
vn -1.000000 0.000000 0.000000
vn -1.000000 0.000000 0.000000
vn -1.000000 0.000000 0.000000
vn -1.000000 0.000000 0.000000
s 1
g fence:pCube2
usemtl initialShadingGroup
f 33/57/97 34/58/98 35/60/99
f 35/60/99 34/58/98 36/59/100
s 2
f 35/60/101 36/59/102 37/62/103
f 37/62/103 36/59/102 38/61/104
s 3
f 37/62/105 38/61/106 39/64/107
f 39/64/107 38/61/106 40/63/108
s 4
f 39/64/109 40/63/110 33/66/111
f 33/66/111 40/63/110 34/65/112
s 5
f 34/58/113 40/67/114 36/59/115
f 36/59/115 40/67/114 38/68/116
s 6
f 39/69/117 33/57/118 37/70/119
f 37/70/119 33/57/118 35/60/120
